<svg version="1.1" viewBox="0.0 0.0 960.0 720.0" fill="none" stroke="none" stroke-linecap="square" stroke-miterlimit="10" xmlns:xlink="http://www.w3.org/1999/xlink" xmlns="http://www.w3.org/2000/svg"><clipPath id="p.0"><path d="m0 0l960.0 0l0 720.0l-960.0 0l0 -720.0z" clip-rule="nonzero"/></clipPath><g clip-path="url(#p.0)"><path fill="#000000" fill-opacity="0.0" d="m0 0l960.0 0l0 720.0l-960.0 0z" fill-rule="evenodd"/><path fill="#3c78d8" d="m96.37533 377.8399l0 0c0 -184.08913 162.43954 -333.32285 362.81888 -333.32285l0 0c200.37933 0 362.8189 149.23372 362.8189 333.32285l0 0c0 184.08911 -162.43958 333.3228 -362.8189 333.3228l0 0c-200.37933 0 -362.81888 -149.2337 -362.81888 -333.3228z" fill-rule="evenodd"/><path fill="#000000" fill-opacity="0.0" d="m285.0692 51.65354l264.72443 0l0 292.8189l-264.72443 0z" fill-rule="evenodd"/><path fill="#ffffff" d="m424.7411 582.2473q-33.609375 0 -59.21875 -11.71875q-25.59375 -11.734375 -39.453125 -32.796875q-13.859375 -21.078125 -13.859375 -48.81253q0 -23.46875 9.859375 -42.65625q9.859375 -19.203125 26.65625 -30.40625q16.8125 -11.203125 37.078125 -11.203125q18.671875 0 31.46875 9.34375q12.796875 9.328125 16.0 25.859375q-27.734375 0 -44.265625 14.671875q-16.53125 14.65625 -16.53125 39.71875q0 22.93753 13.859375 36.81253q13.859375 13.859375 36.796875 13.859375q28.265625 0 46.65625 -18.921875q18.40625 -18.93753 18.40625 -47.75003q0 -25.0625 -13.875 -47.453125q-13.859375 -22.40625 -41.578125 -54.40625q-28.8125 -33.0625 -43.484375 -56.796875q-14.65625 -23.734375 -14.65625 -52.0q0 -27.73436 15.46875 -49.85936q15.46875 -22.140625 42.65625 -34.9375q27.203125 -12.796875 61.34375 -12.796875q43.203125 0 69.0625 20.265625q25.875 20.265625 25.875 54.390625q0 22.406235 -11.203125 36.281235q-11.203125 13.859375 -29.34375 13.859375q-20.265625 0 -32.53125 -16.53125q10.140625 -7.46875 16.0 -19.734375q5.875 -12.26561 5.875 -25.60936q0 -17.0625 -10.140625 -27.1875q-10.125 -10.140625 -27.734375 -10.140625q-21.328125 0 -34.9375 15.203125q-13.59375 15.203125 -13.59375 38.65625q0 21.343735 12.265625 39.749985q12.265625 18.390625 38.40625 47.1875q21.328125 22.9375 34.390625 39.46875q13.078125 16.53125 22.40625 38.140625q9.328125 21.59375 9.328125 46.65625q0 34.140625 -18.9375 61.87503q-18.921875 27.71875 -51.71875 43.71875q-32.796875 16.0 -72.796875 16.0z" fill-rule="nonzero"/></g></svg>